<svg height="18pt" viewBox="0 -92 464 464" width="32pt" xmlns="http://www.w3.org/2000/svg"><path d="m40 80h16v16h-16zm0 0"/><path d="m0 112h16v16h-16zm0 0"/><path d="m32 112h24v16h-24zm0 0"/><path d="m0 144h56v16h-56zm0 0"/><path d="m280.265625 72h-144.53125l72.265625 38.910156zm0 0"/><path d="m304 77.390625-92.207031 49.648437c-2.367188 1.273438-5.21875 1.273438-7.585938 0l-92.207031-49.648437v90.609375h192zm0 0"/><path d="m432 0h-368c-4.417969 0-8 3.582031-8 8v72h24v16h-24v16h24v16h-24v16h24v16h-24v80h384v-232c0-4.417969-3.582031-8-8-8zm-112 176c0 4.417969-3.582031 8-8 8h-208c-4.417969 0-8-3.582031-8-8v-112c.015625-.246094.070312-.488281.160156-.71875-.011718-.402344.011719-.804688.078125-1.203125.09375-.21875.199219-.433594.320313-.636719.097656-.386718.234375-.761718.402344-1.121094.320312-.5.667968-.980468 1.039062-1.441406.21875-.285156.457031-.550781.71875-.800781.476562-.390625.984375-.738281 1.519531-1.039063.320313-.160156.5625-.320312.882813-.480468.917968-.351563 1.894531-.542969 2.878906-.558594h208c.984375.015625 1.960938.207031 2.878906.558594.320313.160156.5625.320312.882813.480468.535156.300782 1.042969.648438 1.519531 1.039063.261719.25.5.515625.71875.800781.371094.460938.71875.941406 1.039062 1.441406.167969.359376.304688.734376.402344 1.121094.121094.203125.226563.417969.320313.636719.066406.398437.089843.800781.078125 1.203125.089844.230469.144531.472656.160156.71875zm80-96h-16v-24h-24v-16h32c4.417969 0 8 3.582031 8 8zm0 0"/><path d="m288 256c0 4.417969-3.582031 8-8 8h-64c-4.417969 0-8-3.582031-8-8h-176v16c0 4.417969 3.582031 8 8 8h416c4.417969 0 8-3.582031 8-8v-16zm0 0"/></svg>